<svg width="255" height="180" viewBox="0 0 255 180" fill="none" xmlns="http://www.w3.org/2000/svg">
<path d="M40.0481 34.0257C35.4058 35.6929 31.4543 36.6729 26.7208 38.031C26.6362 38.2009 25.2632 37.5651 24.7311 38.0159C22.2223 40.1417 20.7697 43.1474 19.9529 46.3111C18.1487 53.2998 19.7491 60.7066 23.1334 66.9129C24.1556 68.7875 25.1912 70.5762 27.271 71.2724C28.9446 71.8326 30.6106 72.485 32.2904 73.1797C44.0278 78.0332 55.4985 83.4926 67.2529 88.3018C73.322 90.7848 79.6873 93.1622 85.4916 96.2034C91.1164 99.1505 97.1012 101.264 102.524 104.62C106.767 107.245 113.326 110.976 118.155 107.844C122.272 105.174 127.088 103.779 131.397 101.448C138.041 97.8558 145.081 94.9989 151.776 91.4882C159.725 87.3206 167.948 83.4019 176.135 79.7265C184.486 75.9775 192.579 71.9943 200.704 67.7908C205.485 65.3176 210.155 62.7403 215.092 60.5552C219.84 58.4538 224.817 56.8296 229.645 54.9166C232.617 53.7389 235.65 52.6714 238.546 51.3064C239.269 50.9657 239.912 50.3535 240.656 50.0803C241.2 49.8809 241.877 49.6855 241.877 48.998C241.877 48.4447 240.581 47.8669 240.011 47.6124L239.978 47.5978C238.832 47.0864 237.758 46.2493 236.828 45.2818C235.056 43.4393 232.97 40.878 232.486 38.3035C232.258 37.0883 231.974 36.1726 231.974 34.9052C231.974 33.353 232.751 31.9168 233.089 30.4321C233.27 29.6425 235.159 26.996 233.534 26.996C232.37 26.996 230.825 26.2044 229.743 25.7699C218.693 21.3313 206.903 18.4515 195.414 15.4084C187.14 13.2171 179.042 10.3069 170.822 7.92308C167.148 6.85766 163.474 5.82392 159.811 4.72912C156.848 3.84355 153.804 2.55033 150.744 2.17093C146.788 1.68045 143.003 2.3015 139.122 3.32136C123.168 7.5141 107.614 13.2124 91.6265 17.3233C80.9318 20.0732 70.7688 24.7501 60.1986 27.9194C53.2501 30.0027 46.8668 31.5768 40.0481 34.0257Z" stroke="#F5EFEB" stroke-width="3" stroke-linecap="round"/>
<path d="M218.528 59.3411C218.767 59.3675 219.304 59.7752 219.519 59.9159C221.851 61.4453 223.964 63.5344 226.113 65.3084C231.868 70.0587 238.099 74.0038 244.34 78.0672C245.359 78.7306 246.351 78.9283 245.148 79.4588C244.495 79.7465 243.898 79.8298 243.257 80.2454C240.366 82.1209 240.524 84.6809 241.306 87.7857C241.694 89.3259 243.676 89.6974 244.294 90.9244C245.003 92.3304 237.384 93.4388 236.984 93.5109C229.853 94.7972 222.701 96.0149 215.509 96.9067C209.274 97.68 202.845 97.7636 196.573 98.1093C189.036 98.5247 181.542 99.6386 174.039 100.424C163.269 101.55 152.294 102.287 141.61 104.054C137.88 104.671 135.617 105.321 130.298 105.869C127.904 106.115 120.031 108.081 117.638 108.081" stroke="#F5EFEB" stroke-width="3" stroke-linecap="round"/>
<path d="M38.3162 75.5878C38.4844 76.9004 40.0768 78.5855 40.6232 79.7329C41.7837 82.1703 43.1998 84.5194 44.5488 86.8726C48.0849 93.0409 51.695 99.1601 55.4409 105.209C56.7113 107.26 58.045 109.55 59.1472 111.699C59.5567 112.498 59.9129 113.216 60.8415 113.455C64.5322 114.402 68.7734 113.187 72.5202 113.16C75.1168 113.141 77.6771 112.552 80.2808 112.488C82.884 112.425 85.5879 112.096 88.1624 111.699C92.3721 111.051 97.5717 110.081 101.804 109.623C103.881 109.398 107.905 107.715 109.993 107.627" stroke="#F5EFEB" stroke-width="3" stroke-linecap="round"/>
<path d="M39.0913 76.5435C36.2433 76.5435 33.2609 77.5704 30.5221 78.2845C27.7427 79.0092 24.4081 80.175 21.5245 80.175C20.3563 80.175 18.977 80.2677 17.9089 80.5711C17.0116 80.8259 16.8821 82.0085 16.5258 82.7306C15.7373 84.3285 15.1866 86.6227 15.4434 88.4096C16.0044 92.3134 17.6631 95.7644 20.2842 98.6766C20.7273 99.1689 20.4215 99.7293 20.7728 100.156C22.4665 102.214 24.1901 104.233 26.1097 106.141C30.7969 110.801 36.1829 114.651 40.993 119.181C46.0208 123.916 50.8965 128.764 55.8011 133.64C57.4967 135.325 59.435 136.696 61.0854 138.415C62.2557 139.633 63.5979 140.61 64.934 141.643C66.6536 142.972 68.4935 145.649 70.722 146.051C74.5246 146.739 78.6059 145.916 82.3129 145.14C87.3222 144.091 92.291 142.773 97.3014 141.747C104.857 140.201 112.159 137.578 119.724 136.053C125.268 134.936 130.643 133.023 136.178 131.824C144.006 130.129 151.826 128.232 159.698 126.765C173.011 124.284 185.813 119.665 198.823 116.072C206.688 113.9 214.437 111.016 222.125 108.286C224.236 107.537 226.365 106.956 228.53 106.403C230.409 105.923 229.903 106.153 229.191 104.654C227.591 101.286 229.755 97.685 230.409 94.4323" stroke="#F5EFEB" stroke-width="3" stroke-linecap="round"/>
<path d="M229.75 95.6572C229.792 96.0376 230.202 96.1874 230.502 96.3279C232.351 97.1933 233.974 98.7144 235.8 99.6996C239.502 101.696 243.099 104.53 247.05 105.947C247.659 106.165 253.064 107.81 253.064 108.519C253.064 110.355 251.372 111.935 250.981 113.738C250.504 115.936 250.635 117.92 251.85 119.838C252.295 120.54 252.709 121.124 253.263 121.749C254.177 122.779 247.179 124.004 246.742 124.101C239.225 125.77 232.536 129.426 225.384 132.167C219.717 134.34 213.769 135.658 208.157 138.01C196.207 143.02 183.917 146.806 171.547 150.56C157.757 154.746 143.994 159.027 130.173 163.128C119.818 166.201 110.074 171.175 99.9581 174.906C97.0387 175.983 93.8025 177.846 90.6833 177.846C89.0764 177.846 87.6494 176.62 86.4083 175.66C82.7504 172.83 78.7254 170.515 75.0322 167.722C69.4087 163.469 62.9357 160.109 56.8812 156.55C51.7963 153.561 47.0266 149.985 42.0634 146.793C39.5265 145.162 36.7327 143.947 34.0476 142.604C31.5465 141.353 29.2049 139.474 26.8108 137.992C22.885 135.562 19.0142 133.095 14.9456 130.918C11.6445 129.152 7.51692 127.538 4.92819 124.762C3.26302 122.977 2.76193 119.625 2.44648 117.321C2.10267 114.81 1.59255 112.449 2.55516 110.008C4.18334 105.879 7.27606 105.708 10.7974 104.753C13.7947 103.939 16.7139 102.854 19.7642 102.235C20.6337 102.059 22.2075 101.782 22.5357 100.784" stroke="#F5EFEB" stroke-width="3" stroke-linecap="round"/>
<path d="M251.434 109.323C248.755 110.022 247.008 111.087 244.474 112.159C240.047 114.032 235.68 115.777 231.149 117.383C225.374 119.432 219.474 121.341 213.797 123.632C207.695 126.094 201.655 128.914 195.415 131.016C190.872 132.547 186.344 134.294 181.842 135.946C176.747 137.814 171.88 140.16 166.671 141.716C162.592 142.935 158.666 144.701 154.695 146.212C150.709 147.728 146.674 148.966 142.807 150.785C132.831 155.479 122.463 158.01 112.006 161.294C107.308 162.769 102.858 164.867 98.166 166.327C96.8149 166.747 96.1327 167.334 94.653 167.334C92.7258 167.334 91.2423 166.645 89.3833 166.275C87.5588 165.911 85.5289 164.712 83.954 163.776C81.9974 162.612 79.7414 161.963 77.7174 160.921C67.2282 155.52 57.3337 149.141 47.7141 142.402C43.1565 139.209 39.2091 135.262 34.3715 132.422C29.3045 129.448 24.8992 125.461 20.1505 122.035C16.9456 119.723 13.7382 117.162 10.3298 115.162C9.41627 114.626 4.24094 110.004 3.91138 109.037" stroke="#F5EFEB" stroke-width="3" stroke-linecap="round"/>
<path d="M18.4539 83.2489C18.0757 83.2074 18.2935 83.2287 18.4892 83.5621C19.9947 86.127 22.6009 88.473 24.6983 90.5735C29.4587 95.341 34.2489 100.08 39.048 104.814C42.8692 108.583 46.4495 112.555 50.2579 116.34C52.8516 118.918 54.7917 121.072 58.573 123.37C64.3905 126.239 65.7785 126.239 69.0445 126.239C72.7628 126.239 72.8804 125.912 76.5142 125.213C82.8896 123.986 89.2416 122.737 95.5208 121.072C107.463 117.906 119.749 114.405 132.052 112.965C142.306 111.765 152.577 110.134 162.674 107.989C167.735 106.914 172.811 106.422 177.756 104.857C178.79 104.53 198.505 99.8867 197.902 98.6973" stroke="#F5EFEB" stroke-width="3" stroke-linecap="round"/>
<path d="M152.998 90.839C156.321 91.1322 168.396 89.7089 171.729 89.7089C177.152 89.7089 182.52 89.4037 187.921 88.903C195.956 88.158 203.051 87.5406 211.961 85.9539C218.452 84.7979 222.965 83.5379 228.323 82.382C230.37 81.9405 243.644 78.8393 245.7 78.4548" stroke="#F5EFEB" stroke-width="3" stroke-linecap="round"/>
<path d="M47.8728 80.3662C50.1065 83.9626 52.2763 87.9891 54.8219 91.3533C57.1091 94.376 59.502 97.29 61.847 100.253C62.3939 100.944 63.2246 101.53 63.6766 102.289C63.8516 102.583 66.049 101.668 66.4121 101.587C69.2805 100.943 72.2822 100.772 75.1958 100.384C78.312 99.9704 81.4271 99.5445 84.5479 99.1645C85.2106 99.0838 87.561 99.1654 88.0116 98.4975" stroke="#F5EFEB" stroke-width="3" stroke-linecap="round"/>
<path d="M26.8479 39.1068C29.4615 39.1068 33.8779 42.0588 36.807 43.4542C44.7157 47.222 50.4108 50.6368 57.3111 53.3084C63.2812 55.6199 68.0583 58.093 74.072 60.3479C79.2047 62.2724 84.2615 64.3533 89.3661 66.3501C96.8973 69.2961 104.34 73.2801 112.156 75.4457C113.081 75.7018 114.258 75.5336 115.212 75.5336C116.394 75.5336 117.402 74.9367 118.542 74.6548C121.493 73.9249 124.258 72.8614 127.104 71.8338C136.522 68.4336 145.938 65.1972 155.285 61.5782C167.024 57.0334 178.474 51.8163 190.137 47.0955C197.896 43.9547 205.377 40.1683 213.193 37.1299C217.204 35.571 221.241 34.1121 225.264 32.5865C226.64 32.0644 228.155 31.3078 229.589 30.9959C230.469 30.8045 233.49 28.3543 234.232 27.8035" stroke="#F5EFEB" stroke-width="3" stroke-linecap="round"/>
</svg>
