<svg width="208" height="179" viewBox="0 0 208 179" fill="none" xmlns="http://www.w3.org/2000/svg">
<path d="M55.7987 54.1819C51.0211 60.4137 46.8829 72.7489 47.8443 80.383C48.537 85.8845 50.1661 90.796 52.5321 95.0973M142.966 62.4836C144.723 69.5993 146.077 72.3265 144.723 80.1009C143.414 87.6163 141.085 93.2556 136.5 98.5" stroke="#F5EFEB" stroke-width="3" stroke-linecap="round"/>
<path d="M105.735 31.7462C103.426 32.9688 101.62 35.3196 99.6696 37.0218C94.05 41.9262 88.0528 45.6329 81.3602 48.8989C73.4286 52.7695 61.4834 52.996 52.8352 52.996" stroke="#F5EFEB" stroke-width="3" stroke-linecap="round"/>
<path d="M101.275 35.8591C101.275 43.1794 112.353 50.727 118.119 53.7795C125.228 57.5428 143.623 62.4836 151.861 62.4836" stroke="#F5EFEB" stroke-width="3" stroke-linecap="round"/>
<path d="M95.6939 4.23249C91.2289 4.97665 88.9452 5.31383 87.8481 5.56586C81.4205 7.04246 74.6141 8.58765 69.172 12.5059C58.9136 19.892 50.4751 31.3984 44.5715 42.2974C37.3717 55.5894 37.9645 79.847 36.8245 94.5043" stroke="#F5EFEB" stroke-width="3" stroke-linecap="round"/>
<path d="M95.6936 4.23247C97.0117 4.23247 100.508 3.73422 101.784 3.30891C106.947 1.58775 114.283 1.7215 119.614 2.8011C130.814 5.06958 139.424 8.73129 148.615 15.722C157.481 22.465 167.047 32.2762 171.015 42.918C177.132 59.3229 178.01 72.7243 175.529 90.0878C173.997 100.812 174.973 97.5954 172 108" stroke="#F5EFEB" stroke-width="3" stroke-linecap="round"/>
<path d="M22.897 135C24.5001 148 28.2045 164.624 33.5003 171C46.5003 174.293 56.5003 175.842 68.0003 176.358C86.5003 177.189 92.5213 177.372 105.88 177.189C117.513 177.03 129.27 176.753 140.899 176.358C143.453 176.272 154.877 177.182 156.601 174.987C159 171.934 160.601 166.9 162.601 161.487C164.601 156.075 166.465 146.01 168.5 135C169.885 127.505 171.601 118.487 171.601 110.987C170.836 107.502 170.28 105.616 166.601 104.487C155.435 101.061 141.856 99.186 130.272 98.4863C113.612 97.48 96.9524 96.3093 80.2653 95.8325C67.7455 95.4748 55.2387 95.8923 42.7197 95.994C38.0236 96.0322 32.8002 96.479 28.2045 97.4594C26.2636 97.8735 24.2385 98.224 22.8969 99.6401C21.8987 100.694 22.0931 102.23 22.0662 103.655C21.9177 111.527 22.0661 123.5 22.897 135Z" stroke="#F5EFEB" stroke-width="3" stroke-linecap="round"/>
<path d="M95.6465 125.166C95.6465 125.847 92.6859 126.29 92.1684 126.422C90.6121 126.817 89.4787 125.906 88.3262 124.975C86.1756 123.238 82.7463 123.991 81.6766 126.546C80.2491 129.956 81.7981 133.661 83.4204 136.674C84.0155 137.779 84.7292 138.483 85.6433 139.223C86.1574 139.639 87.2626 139.156 87.7944 139.05C88.6083 138.887 89.5671 138.398 90.4294 138.753C91.4415 139.17 92.3303 139.567 93.4476 139.567C97.0843 139.567 99.905 135.95 100.993 132.841C101.91 130.222 101.441 127.195 99.3115 125.344C97.5615 123.822 95.2223 124.532 93.3182 125.166" stroke="#F5EFEB" stroke-width="3" stroke-linecap="round"/>
<path d="M91.8521 118.699C91.8521 117.148 92.8076 115.617 93.7492 114.44C94.0277 114.092 95.2981 112.497 95.6943 113.232C96.7269 115.15 93.5682 117.853 92.3695 118.785" stroke="#F5EFEB" stroke-width="3" stroke-linecap="round"/>
<path d="M171.936 122.829C171.936 123.216 172.167 123.304 172.418 123.602C173.623 125.032 175.416 126.012 176.981 126.99C181.471 129.796 185.804 132.912 190.137 135.945C196.376 140.312 210.453 144.266 204.5 153.5C199.477 161.292 191.374 166.024 182.601 168.491C177.659 169.881 172.545 171.396 167.451 172.058C165.539 172.306 163.647 172.537 161.725 172.711C160.669 172.807 159.353 173.061 158.337 172.771" stroke="#F5EFEB" stroke-width="3" stroke-linecap="round"/>
<path d="M22 123C19.5337 126.225 16.2101 128.44 13.403 131.522C8.89377 136.473 -0.692047 145.002 2.71417 152.571C6.52325 161.036 21.2874 166 30 166" stroke="#F5EFEB" stroke-width="3" stroke-linecap="round"/>
</svg>
