<svg width="179" height="181" viewBox="0 0 179 181" fill="none" xmlns="http://www.w3.org/2000/svg">
<path d="M44.5443 16.651C50.3024 13.1201 56.5253 10.5458 62.8909 8.35429C67.038 7.17387 82.0482 2.38506 86.3752 2.10773C93.8968 1.62565 101.023 2.87049 108.47 3.68621C116.711 4.58895 125.068 7.85786 132.558 11.261C145.206 17.008 157.248 26.8921 163.749 39.4042C170.088 51.6037 174.546 65.1336 176.21 78.7989C177.201 86.9348 177.39 94.9289 176.018 103.044C174.792 110.301 172.817 117.337 171.091 124.479C168.478 135.292 163.73 144.989 156.502 153.402C147.285 164.129 137.412 173.045 123.49 176.54C113.147 179.136 101.77 179.591 91.2063 178.311C80.046 176.958 68.3505 175.655 57.6956 171.891C51.4889 169.698 44.9845 167.398 39.4065 163.854C34.0439 160.447 29.5592 156.616 25.2584 151.919C15.4115 141.166 9.40724 128.042 5.56987 114.074C1.85562 100.555 0.635701 85.1919 3.86366 71.4166C7.23081 57.0473 14.8827 43.8904 25.1625 33.3887C31.1159 27.3068 37.2498 21.1239 44.5443 16.651Z" stroke="#F5EFEB" stroke-width="3" stroke-linecap="round"/>
<path d="M123.41 10C123.41 10.9104 122.927 11.1659 123.259 12.3008C123.829 14.2494 124.673 15.921 124.605 17.9762C124.524 20.4497 120.214 24.0731 118.631 25.7031C116.695 27.697 114.364 29.6534 114.364 32.6056C114.364 35.2136 111.856 36.113 109.85 37.0922C107.195 38.388 104.393 40.1152 101.648 41.1378C99.321 42.0043 95.7567 40.6214 93.7485 39.508C90.6996 37.8177 86.2605 37.2531 82.9003 37.9166C80.2574 38.4385 77.7375 39.0232 75.2572 40.1216C73.1106 41.0721 71.4412 42.6362 69.4633 43.8125C66.2266 45.7373 63.2129 48.0569 59.9995 50.0343C56.6684 52.0842 58.7657 55.3545 59.9521 58.0105C60.5489 59.3464 61.279 61.5614 62.5124 62.4204C64.7988 64.0127 68.4433 62.3627 70.5538 61.0399C75.372 58.0198 76.2254 51.5023 79.0313 46.8419C79.8604 45.4648 82.2744 45.1754 82.2744 47.1966C82.2744 48.6642 80.178 55.1835 82.8244 55.5179C83.941 55.659 90.248 52.6616 90.1261 54.3867C90.0143 55.9687 88.0345 57.0926 87.0537 58.0488C85.3588 59.7011 83.2241 60.7525 81.2503 62.0273C78.3017 63.9318 75.9578 66.5274 72.9719 68.3162C69.6452 70.3092 66.9485 69.6425 63.4228 68.3162C60.2683 67.1296 58.1358 66.9432 54.9642 67.8177C52.2896 68.5552 50.7074 69.8789 47.7953 69.8789C46.4731 69.8789 43.8563 69.9566 43.3953 71.6812C42.6812 74.3522 42.8895 78.5735 40.1237 80.1463C37.7705 81.4845 34.8806 79.475 32.4143 80.338C30.0539 81.164 29.0195 82.675 29.0195 85.3136C29.0195 87.2188 28.66 91.1922 31.0298 92.101C33.5522 93.0683 35.9378 94.2015 38.6634 93.0788C43.4444 91.1096 44.8717 81.4779 51.247 83.5496C53.7582 84.3657 55.34 86.4745 57.0124 88.458C58.5482 90.2793 60.0848 91.5496 60.0848 94.0471C60.0848 97.0941 58.273 98.927 57.1073 101.621C56.123 103.895 58.0485 104.615 59.9142 104.564C62.5455 104.492 63.0694 100.148 64.8262 98.8692C65.6484 98.2708 68.0711 97.7308 68.1072 96.4534C68.1444 95.137 66.8634 93.1388 66.2296 92.0051C65.1243 90.0281 63.9159 87.4347 63.9159 85.0835C63.9159 84.2832 64.0142 81.5682 65.0348 81.1337C66.227 80.6263 67.5049 83.7543 67.7564 84.3645C69.4359 88.4397 70.5524 92.9638 72.7253 96.8081C73.6806 98.4982 75.0692 102.32 77.4951 102.32C80.3319 102.32 78.8904 90.2712 82.1891 93.6061C83.7434 95.1775 84.5334 97.5601 85.9347 99.3102C87.3515 101.08 88.7872 102.518 90.733 103.624C91.8664 104.269 92.0037 105.242 92.0037 106.424C92.0037 108.781 90.4496 109.858 88.4761 111.035C85.8771 112.584 82.7004 112.693 80.2451 114.486C78.9963 115.398 77.2345 117.801 78.3486 119.366C80.9183 122.974 85.9268 124.063 90.0313 124.063C92.9718 124.063 95.5016 123.33 98.2907 122.424C99.7184 121.96 101.517 121.148 103.013 121.82C104.038 122.28 103.952 123.937 103.952 124.849C103.952 126.852 104.054 128.155 105.109 129.892C107.176 133.297 110.037 136.479 112.619 139.517C114.586 141.832 117.106 144.704 120.091 145.71C122.862 146.644 126.701 145.145 129.024 143.735C134.254 140.563 138.887 137.407 143.248 132.998C144.678 131.553 146.649 129.661 145.259 127.514C143.227 124.38 139.432 123.403 136.022 122.683C132.59 121.957 129.019 121.408 125.724 120.152C123.687 119.375 120.222 116.065 121.372 113.547C122.094 111.964 124.236 112.491 125.601 112.76C128.378 113.31 131.226 114.137 134.069 114.218C137.424 114.313 140.511 113.529 143.798 113.374C146.013 113.27 148.604 113.009 150.588 114.189C154.652 116.606 157.161 121.442 160.715 124.543C164.2 127.582 164.428 121.567 165.134 119.232C166.387 115.088 170.705 109.243 174 106.424" stroke="#F5EFEB" stroke-width="3" stroke-linecap="round"/>
<path d="M14 109.636C15.5036 107.382 17.1564 104.163 18.7764 102.784C21.5518 100.421 27.0972 99.296 30.6142 100.468C33.8782 101.555 36.4253 102.302 39.2723 104.392C42.7503 106.944 46.2901 110.224 50.1811 112.096C52.9059 113.407 55.7984 113.558 58.5423 114.68C61.0657 115.712 63.0265 116.977 65.1125 118.786C67.4402 120.805 69.2171 123.313 71.7785 125.141C75.3562 127.695 79.3599 128.485 83.3577 130.013C86.0853 131.055 88.9903 131.729 90.9431 134.071C92.4737 135.906 94.0674 137.969 95.435 139.918C97.3503 142.649 99.7935 144.871 101.957 147.393C105.54 151.57 110.28 155.204 116.036 155.413C117.295 155.459 118.56 155.423 119.819 155.423C120.69 155.423 121.369 155.171 120.777 156.246C119.107 159.28 116.785 161.719 114.303 164.132C112.24 166.138 110.391 168.892 108.202 170.669C106.916 171.713 106.277 174.115 105.597 175.589C105.253 176.332 104.989 177.182 104.966 178" stroke="#F5EFEB" stroke-width="3" stroke-linecap="round"/>
<path d="M13.9185 110C12.4408 112.905 13.1079 116.83 13.4518 119.935C14.7088 131.282 23.958 139.801 32.2696 146.135C35.7428 148.781 39.2305 151.442 42.5165 154.321C44.8461 156.362 46.5012 159.344 48.2209 161.901C49.5698 163.908 51.5837 168.024 53 170" stroke="#F5EFEB" stroke-width="3" stroke-linecap="round"/>
<path d="M73.6695 9.518C74.4971 10.2507 74.9051 10.4422 75.4803 11.6092C76.4263 13.5281 77.1479 15.2857 78.7361 16.7317C79.1142 17.076 79.4496 17.4908 79.6993 17.9404C81.3531 20.9177 75.7255 25.2425 73.997 26.7272C69.7426 30.3816 64.676 33.5813 59.8375 36.4158C56.0603 38.6285 50.4946 41.5666 45.9285 40.9052C42.8804 40.4636 38.3683 39.6356 36.065 37.4134C32.2593 33.7418 34.2359 29.0914 37.7795 25.7584C42.0084 21.7809 48.1487 20.3834 53.5572 18.6598C56.9426 17.5809 60.7 15.8951 63.5363 13.7484C65.0797 12.5802 67.5053 11.3096 69.306 10.6691C70.4814 10.2511 71.7168 9.90868 72.6292 9" stroke="#F5EFEB" stroke-width="3" stroke-linecap="round"/>
<path d="M40 60.0212C40 55.459 45.7515 52.4436 45.7515 48.0846C49.4588 47.0383 49.9806 55.9976 49.9806 58.2793C49.9806 61.7436 50.4922 64 46.259 64C43.277 64 40 63.2564 40 60.0212Z" stroke="#F5EFEB" stroke-width="3" stroke-linecap="round"/>
<path d="M29.2967 59.8473C27.6826 58.1129 33.0947 53 34.9257 53C35.4492 54.2398 33.0616 56.9243 32.3102 58.0681C32.0611 58.4473 29.9805 60.5821 29.2967 59.8473Z" stroke="#F5EFEB" stroke-width="3" stroke-linecap="round"/>
<path d="M91.2735 83.2131C89.7067 84.385 83.9526 83.8588 85.167 86.1464C87.4412 90.4305 93.9375 89.9869 98.5751 89.9869C100.211 89.9869 105.338 89.6604 103.671 87.2073C100.689 82.8172 94.9952 82.4542 89.6793 83.4737" stroke="#F5EFEB" stroke-width="3" stroke-linecap="round"/>
<path d="M112.122 84.5761C111.636 82.9534 112.757 83.7857 112.757 82.1912C115.518 81.673 118.485 82.169 120.552 84.1597C122.83 86.354 125.549 88.4514 127.136 91.163C128.75 93.9205 130.033 97.9769 127.812 100.826C125.992 103.16 123.476 103.71 120.844 102.009C118.979 100.803 117.192 99.1377 116.216 97.1916C115.33 95.4248 115.468 93.1285 115.157 91.2198C114.751 88.7258 112.821 86.9076 112.122 84.5761Z" stroke="#F5EFEB" stroke-width="3" stroke-linecap="round"/>
<path d="M49.9238 93.4067C49.9238 94.0424 48.0368 97.5696 49.6566 96.9207C50.9468 96.4038 51.7687 91.5927 49.9238 93.4067Z" stroke="#F5EFEB" stroke-width="3" stroke-linecap="round"/>
<path d="M50.022 87C50.022 87.3967 49.766 89.3095 51 88.9568" stroke="#F5EFEB" stroke-width="3" stroke-linecap="round"/>
<path d="M49.1281 108.155C48.1146 104.089 53.4376 107.008 53.8367 105C54.129 106.634 54.1932 108.687 52.588 109.674C51.0775 110.603 49.4316 109.373 49.1281 108.155Z" stroke="#F5EFEB" stroke-width="3" stroke-linecap="round"/>
</svg>
