<svg width="54" height="39" viewBox="0 0 54 39" fill="none" xmlns="http://www.w3.org/2000/svg">
<path d="M11.707 18.288C11.403 18.256 11.155 18.072 10.963 17.736C10.771 17.384 10.651 17.08 10.603 16.824C10.491 16.088 10.403 15.344 10.339 14.592C10.275 13.84 10.203 13.096 10.123 12.36C10.011 10.792 9.89096 9.232 9.76296 7.68C9.63496 6.128 9.50696 4.584 9.37896 3.048C9.31496 2.552 9.19496 2.16 9.01896 1.872C8.85896 1.584 8.78696 1.264 8.80296 0.912001C8.80296 0.592 8.88296 0.36 9.04296 0.216C9.21896 0.072 9.42696 0 9.66696 0C9.89096 0.0160007 10.107 0.104001 10.315 0.264001C10.523 0.408001 10.659 0.592001 10.723 0.816001C10.835 1.248 10.931 1.704 11.011 2.184C11.091 2.648 11.163 3.112 11.227 3.576L11.371 8.016C11.435 9.056 11.507 10.096 11.587 11.136C11.667 12.16 11.739 13.184 11.803 14.208C11.835 14.704 11.859 15.2 11.875 15.696C11.891 16.176 12.027 16.64 12.283 17.088C12.379 17.264 12.395 17.456 12.331 17.664C12.267 17.776 12.179 17.904 12.067 18.048C11.955 18.208 11.835 18.288 11.707 18.288Z" fill="#F5EFEB"/>
<path d="M25.1721 17.472C25.1081 17.792 24.9961 18 24.8361 18.096C24.6921 18.208 24.4681 18.24 24.1641 18.192C23.7481 18.112 23.4201 17.976 23.1801 17.784C22.9401 17.592 22.7161 17.336 22.5081 17.016C22.3001 16.68 22.0441 16.272 21.7401 15.792C21.4041 16.144 21.1321 16.432 20.9241 16.656C20.7161 16.864 20.5161 17.048 20.3241 17.208C20.1481 17.368 19.9321 17.544 19.6761 17.736C19.4201 17.912 19.0601 18.144 18.5961 18.432C17.9881 18.816 17.4681 18.952 17.0361 18.84C16.6201 18.744 16.1801 18.504 15.7161 18.12C15.3161 17.8 15.0601 17.384 14.9481 16.872C14.8361 16.344 14.8841 15.824 15.0921 15.312C15.3641 14.656 15.7081 14.056 16.1241 13.512C16.5401 12.968 16.9801 12.448 17.4441 11.952C17.8441 11.552 18.2361 11.152 18.6201 10.752C19.0201 10.352 19.4361 9.928 19.8681 9.48C19.4521 9.352 19.1161 9.272 18.8601 9.24C18.6201 9.208 18.3881 9.2 18.1641 9.216C17.9561 9.216 17.7001 9.24 17.3961 9.288C17.0921 9.32 16.6761 9.352 16.1481 9.384C15.8441 9.416 15.5561 9.4 15.2841 9.336C15.0281 9.256 14.8601 9.016 14.7801 8.616C14.7001 8.36 14.7881 8.152 15.0441 7.992C15.3001 7.832 15.6281 7.72 16.0281 7.656C16.4441 7.576 16.8361 7.544 17.2041 7.56C17.8281 7.576 18.4601 7.6 19.1001 7.632C19.7401 7.664 20.3721 7.728 20.9961 7.824C21.6521 7.936 22.0441 8.176 22.1721 8.544C22.3001 8.896 22.1561 9.336 21.7401 9.864C21.3241 10.36 20.8681 10.848 20.3721 11.328C19.8761 11.792 19.4121 12.272 18.9801 12.768C18.5961 13.2 18.2201 13.648 17.8521 14.112C17.5001 14.576 17.1481 15.032 16.7961 15.48C16.7161 15.592 16.6601 15.728 16.6281 15.888C16.5961 16.032 16.5801 16.168 16.5801 16.296C16.5801 16.696 16.7001 16.984 16.9401 17.16C17.1961 17.32 17.4841 17.296 17.8041 17.088C18.4121 16.688 18.9721 16.256 19.4841 15.792C19.9961 15.312 20.4121 14.776 20.7321 14.184C21.0521 13.576 21.2201 12.88 21.2361 12.096C21.2361 11.232 21.5001 10.792 22.0281 10.776C22.4601 10.76 22.7321 10.856 22.8441 11.064C22.9561 11.272 23.0041 11.584 22.9881 12C22.9881 12.416 23.0041 12.928 23.0361 13.536C23.0841 14.048 23.1721 14.552 23.3001 15.048C23.4281 15.528 23.6681 15.976 24.0201 16.392C24.1641 16.584 24.3401 16.76 24.5481 16.92C24.7561 17.08 24.9641 17.264 25.1721 17.472Z" fill="#F5EFEB"/>
<path d="M37.4762 17.64C37.3162 17.64 37.1562 17.6 36.9962 17.52C36.8362 17.424 36.6922 17.32 36.5642 17.208C36.4842 17.128 36.4362 17.008 36.4202 16.848C36.4042 16.688 36.3802 16.536 36.3482 16.392C36.2202 15.688 36.0922 14.984 35.9642 14.28C35.8362 13.576 35.7002 12.864 35.5562 12.144C35.4922 11.824 35.4122 11.512 35.3162 11.208C35.2362 10.904 35.1402 10.6 35.0282 10.296C34.8682 9.896 34.5722 9.696 34.1402 9.696C33.9802 9.696 33.7882 9.744 33.5642 9.84C33.0682 10.144 32.6282 10.512 32.2442 10.944C31.8762 11.36 31.6042 11.856 31.4282 12.432C31.2362 12.976 31.0362 13.52 30.8282 14.064C30.6202 14.592 30.4202 15.128 30.2282 15.672C30.1162 15.928 29.9802 16.16 29.8202 16.368C29.6602 16.576 29.4202 16.68 29.1002 16.68C28.7802 16.68 28.5082 16.56 28.2842 16.32C28.0762 16.08 27.9482 15.736 27.9002 15.288C27.8042 14.44 27.7082 13.592 27.6122 12.744C27.5162 11.88 27.3162 11.032 27.0122 10.2C26.9802 10.12 26.9642 10 26.9642 9.84C26.9642 9.584 27.0522 9.376 27.2282 9.216C27.4202 9.056 27.6442 8.976 27.9002 8.976C28.3162 8.976 28.6202 9.2 28.8122 9.648C28.8922 9.808 28.9482 9.976 28.9802 10.152C29.0282 10.328 29.0842 10.504 29.1482 10.68C29.1802 10.76 29.2122 10.912 29.2442 11.136C29.2762 11.344 29.3162 11.568 29.3642 11.808C29.4122 12.032 29.4682 12.216 29.5322 12.36C29.6762 12.168 29.8042 11.936 29.9162 11.664C30.0282 11.392 30.1322 11.128 30.2282 10.872C30.3402 10.616 30.4442 10.432 30.5402 10.32C30.8602 9.984 31.1802 9.648 31.5002 9.312C31.8202 8.96 32.1722 8.656 32.5562 8.4C32.8282 8.224 33.0922 8.096 33.3482 8.016C33.6202 7.936 33.8842 7.896 34.1402 7.896C35.1482 7.896 35.9402 8.44 36.5162 9.528C36.6922 9.848 36.8362 10.184 36.9482 10.536C37.0602 10.872 37.1562 11.208 37.2362 11.544C37.3802 12.328 37.5082 13.112 37.6202 13.896C37.7482 14.68 37.8762 15.456 38.0042 16.224C38.0522 16.464 38.0762 16.68 38.0762 16.872C38.0762 17.08 38.0282 17.264 37.9322 17.424C37.8362 17.568 37.6842 17.64 37.4762 17.64Z" fill="#F5EFEB"/>
<path d="M42.3357 13.608C41.7597 13.512 41.3676 13.24 41.1596 12.792C41.1436 12.728 41.1277 12.632 41.1117 12.504C41.0957 12.376 41.0877 12.272 41.0877 12.192C41.2637 11.792 41.5197 11.464 41.8557 11.208C42.1917 10.952 42.5516 10.824 42.9356 10.824C43.2076 10.824 43.4396 10.936 43.6316 11.16C43.8396 11.368 43.9436 11.664 43.9436 12.048C43.9436 12.32 43.8797 12.584 43.7517 12.84C43.6077 13.08 43.1837 13.336 42.4797 13.608H42.3357Z" fill="#F5EFEB"/>
<path d="M2.90618 38.288C2.60218 38.256 2.35418 38.072 2.16218 37.736C1.97018 37.384 1.85018 37.08 1.80218 36.824C1.69018 36.088 1.60218 35.344 1.53818 34.592C1.47418 33.84 1.40218 33.096 1.32218 32.36C1.21018 30.792 1.09018 29.232 0.962182 27.68C0.834182 26.128 0.706182 24.584 0.578182 23.048C0.514182 22.552 0.394182 22.16 0.218182 21.872C0.0581818 21.584 -0.0138182 21.264 0.00218183 20.912C0.00218183 20.592 0.0821818 20.36 0.242182 20.216C0.418182 20.072 0.626182 20 0.866182 20C1.09018 20.016 1.30618 20.104 1.51418 20.264C1.72218 20.408 1.85818 20.592 1.92218 20.816C2.03418 21.248 2.13018 21.704 2.21018 22.184C2.29018 22.648 2.36218 23.112 2.42618 23.576L2.57018 28.016C2.63418 29.056 2.70618 30.096 2.78618 31.136C2.86618 32.16 2.93818 33.184 3.00218 34.208C3.03418 34.704 3.05818 35.2 3.07418 35.696C3.09018 36.176 3.22618 36.64 3.48218 37.088C3.57818 37.264 3.59418 37.456 3.53018 37.664C3.46618 37.776 3.37818 37.904 3.26618 38.048C3.15418 38.208 3.03418 38.288 2.90618 38.288Z" fill="#F5EFEB"/>
<path d="M16.3713 37.472C16.3073 37.792 16.1953 38 16.0353 38.096C15.8913 38.208 15.6673 38.24 15.3633 38.192C14.9473 38.112 14.6193 37.976 14.3793 37.784C14.1393 37.592 13.9153 37.336 13.7073 37.016C13.4993 36.68 13.2433 36.272 12.9393 35.792C12.6033 36.144 12.3313 36.432 12.1233 36.656C11.9153 36.864 11.7153 37.048 11.5233 37.208C11.3473 37.368 11.1313 37.544 10.8753 37.736C10.6193 37.912 10.2593 38.144 9.79531 38.432C9.18731 38.816 8.66731 38.952 8.23531 38.84C7.81931 38.744 7.37931 38.504 6.91531 38.12C6.51531 37.8 6.25931 37.384 6.14731 36.872C6.03531 36.344 6.08331 35.824 6.29131 35.312C6.56331 34.656 6.90731 34.056 7.32331 33.512C7.73931 32.968 8.17931 32.448 8.64331 31.952C9.04331 31.552 9.43531 31.152 9.81931 30.752C10.2193 30.352 10.6353 29.928 11.0673 29.48C10.6513 29.352 10.3153 29.272 10.0593 29.24C9.81931 29.208 9.58731 29.2 9.36331 29.216C9.15531 29.216 8.89931 29.24 8.59531 29.288C8.29131 29.32 7.87531 29.352 7.34731 29.384C7.04331 29.416 6.75531 29.4 6.48331 29.336C6.22731 29.256 6.05931 29.016 5.97931 28.616C5.89931 28.36 5.98731 28.152 6.24331 27.992C6.49931 27.832 6.82731 27.72 7.22731 27.656C7.64331 27.576 8.03531 27.544 8.40331 27.56C9.02731 27.576 9.65931 27.6 10.2993 27.632C10.9393 27.664 11.5713 27.728 12.1953 27.824C12.8513 27.936 13.2433 28.176 13.3713 28.544C13.4993 28.896 13.3553 29.336 12.9393 29.864C12.5233 30.36 12.0673 30.848 11.5713 31.328C11.0753 31.792 10.6113 32.272 10.1793 32.768C9.79531 33.2 9.41931 33.648 9.05131 34.112C8.69931 34.576 8.34731 35.032 7.99531 35.48C7.91531 35.592 7.85931 35.728 7.82731 35.888C7.79531 36.032 7.77931 36.168 7.77931 36.296C7.77931 36.696 7.89931 36.984 8.13931 37.16C8.39531 37.32 8.68331 37.296 9.00331 37.088C9.61131 36.688 10.1713 36.256 10.6833 35.792C11.1953 35.312 11.6113 34.776 11.9313 34.184C12.2513 33.576 12.4193 32.88 12.4353 32.096C12.4353 31.232 12.6993 30.792 13.2273 30.776C13.6593 30.76 13.9313 30.856 14.0433 31.064C14.1553 31.272 14.2033 31.584 14.1873 32C14.1873 32.416 14.2033 32.928 14.2353 33.536C14.2833 34.048 14.3713 34.552 14.4993 35.048C14.6273 35.528 14.8673 35.976 15.2193 36.392C15.3633 36.584 15.5393 36.76 15.7473 36.92C15.9553 37.08 16.1633 37.264 16.3713 37.472Z" fill="#F5EFEB"/>
<path d="M28.6754 37.64C28.5154 37.64 28.3554 37.6 28.1954 37.52C28.0354 37.424 27.8914 37.32 27.7634 37.208C27.6834 37.128 27.6354 37.008 27.6194 36.848C27.6034 36.688 27.5794 36.536 27.5474 36.392C27.4194 35.688 27.2914 34.984 27.1634 34.28C27.0354 33.576 26.8994 32.864 26.7554 32.144C26.6914 31.824 26.6114 31.512 26.5154 31.208C26.4354 30.904 26.3394 30.6 26.2274 30.296C26.0674 29.896 25.7714 29.696 25.3394 29.696C25.1794 29.696 24.9874 29.744 24.7634 29.84C24.2674 30.144 23.8274 30.512 23.4434 30.944C23.0754 31.36 22.8034 31.856 22.6274 32.432C22.4354 32.976 22.2354 33.52 22.0274 34.064C21.8194 34.592 21.6194 35.128 21.4274 35.672C21.3154 35.928 21.1794 36.16 21.0194 36.368C20.8594 36.576 20.6194 36.68 20.2994 36.68C19.9794 36.68 19.7074 36.56 19.4834 36.32C19.2754 36.08 19.1474 35.736 19.0994 35.288C19.0034 34.44 18.9074 33.592 18.8114 32.744C18.7154 31.88 18.5154 31.032 18.2114 30.2C18.1794 30.12 18.1634 30 18.1634 29.84C18.1634 29.584 18.2514 29.376 18.4274 29.216C18.6194 29.056 18.8434 28.976 19.0994 28.976C19.5154 28.976 19.8194 29.2 20.0114 29.648C20.0914 29.808 20.1474 29.976 20.1794 30.152C20.2274 30.328 20.2834 30.504 20.3474 30.68C20.3794 30.76 20.4114 30.912 20.4434 31.136C20.4754 31.344 20.5154 31.568 20.5634 31.808C20.6114 32.032 20.6674 32.216 20.7314 32.36C20.8754 32.168 21.0034 31.936 21.1154 31.664C21.2274 31.392 21.3314 31.128 21.4274 30.872C21.5394 30.616 21.6434 30.432 21.7394 30.32C22.0594 29.984 22.3794 29.648 22.6994 29.312C23.0194 28.96 23.3714 28.656 23.7554 28.4C24.0274 28.224 24.2914 28.096 24.5474 28.016C24.8194 27.936 25.0834 27.896 25.3394 27.896C26.3474 27.896 27.1394 28.44 27.7154 29.528C27.8914 29.848 28.0354 30.184 28.1474 30.536C28.2594 30.872 28.3554 31.208 28.4354 31.544C28.5794 32.328 28.7074 33.112 28.8194 33.896C28.9474 34.68 29.0754 35.456 29.2034 36.224C29.2514 36.464 29.2754 36.68 29.2754 36.872C29.2754 37.08 29.2274 37.264 29.1314 37.424C29.0354 37.568 28.8834 37.64 28.6754 37.64Z" fill="#F5EFEB"/>
<path d="M35.0469 37.856C34.4869 37.856 33.9589 37.712 33.4629 37.424C32.9829 37.136 32.5909 36.76 32.2869 36.296C31.9989 35.816 31.8389 35.288 31.8069 34.712C31.7429 33.448 32.1589 32.336 33.0549 31.376C33.6629 30.816 34.1349 30.392 34.4709 30.104C34.8229 29.8 35.1349 29.576 35.4069 29.432C35.6949 29.272 36.0549 29.136 36.4869 29.024C36.8869 28.896 37.2549 28.832 37.5909 28.832C37.9269 28.832 38.2629 28.888 38.5989 29L39.7989 29.384C39.8149 29.24 39.8229 29.096 39.8229 28.952C39.8389 28.808 39.8469 28.672 39.8469 28.544C39.8149 27.936 39.7669 27.344 39.7029 26.768C39.6389 26.176 39.6069 25.576 39.6069 24.968C39.6069 24.184 39.6549 23.528 39.7509 23C39.8629 22.472 40.1029 22.208 40.4709 22.208C40.6469 22.208 40.8309 22.272 41.0229 22.4C41.2309 22.528 41.3669 22.68 41.4309 22.856C41.4949 22.968 41.5269 23.112 41.5269 23.288C41.5589 24.2 41.5749 25.112 41.5749 26.024C41.5909 26.936 41.6069 27.84 41.6229 28.736C41.6229 29.088 41.5989 29.448 41.5509 29.816C41.5189 30.184 41.5029 30.552 41.5029 30.92C41.5029 31.128 41.5109 31.448 41.5269 31.88C41.5589 32.296 41.5989 32.76 41.6469 33.272C41.6949 33.768 41.7349 34.256 41.7669 34.736C41.8149 35.2 41.8469 35.592 41.8629 35.912C41.8949 36.232 41.9109 36.408 41.9109 36.44C41.9109 36.648 41.8629 36.808 41.7669 36.92C41.6869 37.016 41.5829 37.064 41.4549 37.064C41.2949 37.064 41.1269 36.952 40.9509 36.728C40.7749 36.488 40.6709 36.288 40.6389 36.128C40.5589 35.808 40.4949 35.488 40.4469 35.168C40.3989 34.832 40.3509 34.504 40.3029 34.184C40.2869 34.12 40.2709 33.936 40.2549 33.632C40.2389 33.328 40.2309 33.088 40.2309 32.912C40.1829 33.04 40.1109 33.208 40.0149 33.416C39.9189 33.608 39.8149 33.8 39.7029 33.992C39.6069 34.184 39.5429 34.312 39.5109 34.376C38.9189 35.416 38.1349 36.304 37.1589 37.04C36.8549 37.296 36.5269 37.496 36.1749 37.64C35.8229 37.784 35.4469 37.856 35.0469 37.856ZM34.7109 36.296C35.1749 36.296 35.6229 36.152 36.0549 35.864C36.8069 35.336 37.4229 34.712 37.9029 33.992C38.3989 33.256 38.8469 32.48 39.2469 31.664C39.2949 31.568 39.3189 31.472 39.3189 31.376C39.3189 31.12 39.1829 30.904 38.9109 30.728C38.6389 30.536 38.3189 30.408 37.9509 30.344C37.5989 30.264 37.2949 30.288 37.0389 30.416C36.1909 30.72 35.4309 31.176 34.7589 31.784C34.1029 32.376 33.6469 33.088 33.3909 33.92C33.3269 34.224 33.3269 34.512 33.3909 34.784C33.4709 35.04 33.5749 35.32 33.7029 35.624C33.8789 36.072 34.2149 36.296 34.7109 36.296Z" fill="#F5EFEB"/>
<path d="M45.9545 38.84C45.7785 38.856 45.5945 38.872 45.4025 38.888C45.2105 38.904 45.0185 38.912 44.8265 38.912C44.5225 38.88 44.2505 38.776 44.0105 38.6C43.7705 38.424 43.6825 38.216 43.7465 37.976C43.7785 37.88 43.8745 37.784 44.0345 37.688C44.1945 37.592 44.3305 37.552 44.4425 37.568C45.0505 37.632 45.6505 37.632 46.2425 37.568C46.8505 37.488 47.4505 37.376 48.0425 37.232C48.4425 37.136 48.8425 37.024 49.2425 36.896C49.6425 36.752 50.0185 36.584 50.3705 36.392C51.4105 35.848 51.4665 35.176 50.5385 34.376C50.2185 34.104 49.8905 33.84 49.5545 33.584C49.2345 33.328 48.9145 33.072 48.5945 32.816C48.0505 32.4 47.6105 31.928 47.2745 31.4C46.9545 30.872 46.7065 30.288 46.5305 29.648C46.4185 29.248 46.4425 28.832 46.6025 28.4C46.7625 27.952 47.0185 27.6 47.3705 27.344C48.1705 26.72 49.0105 26.4 49.8905 26.384C50.7705 26.368 51.6025 26.672 52.3865 27.296C52.6105 27.456 52.7945 27.664 52.9385 27.92C53.0985 28.16 53.2505 28.4 53.3945 28.64C53.4745 28.848 53.4425 29.032 53.2985 29.192C53.1545 29.352 52.9465 29.344 52.6745 29.168C52.4825 29.04 52.2985 28.896 52.1225 28.736C51.9625 28.576 51.7865 28.44 51.5945 28.328C51.2265 28.104 50.8185 27.992 50.3705 27.992C49.9385 27.992 49.5305 28.08 49.1465 28.256C48.7785 28.416 48.4825 28.664 48.2585 29C48.1465 29.192 48.0665 29.384 48.0185 29.576C47.9865 29.752 48.0185 29.952 48.1145 30.176C48.3865 30.784 48.6425 31.24 48.8825 31.544C49.1385 31.832 49.4025 32.064 49.6745 32.24C49.9465 32.416 50.2505 32.624 50.5865 32.864C50.9225 33.088 51.3145 33.44 51.7625 33.92C52.0825 34.256 52.3065 34.64 52.4345 35.072C52.5625 35.488 52.5705 35.904 52.4585 36.32C52.3625 36.736 52.1065 37.088 51.6905 37.376C51.0505 37.824 50.3705 38.136 49.6505 38.312C48.9305 38.504 48.1945 38.664 47.4425 38.792C47.2185 38.84 47.0025 38.864 46.7945 38.864C46.6025 38.864 46.3225 38.856 45.9545 38.84Z" fill="#F5EFEB"/>
</svg>
