<svg width="60" height="69" viewBox="0 0 60 69" fill="none" xmlns="http://www.w3.org/2000/svg">
<path d="M34.083 6.13815C33.9642 6.25689 33.8388 6.34405 33.6703 6.37774C31.8398 6.74385 30.1866 8.23414 28.812 9.41696C26.0101 11.8279 24.079 14.9915 21.6732 17.7537C20.3402 19.2842 18.6627 20.774 17.4893 22.4168C16.9264 23.2049 15.9546 23.9125 15.5992 24.8171C14.8538 26.7145 12.9563 28.2693 11.4641 29.5557C9.79414 30.9953 8.05368 32.5514 6.78767 34.3652C5.87832 35.668 4.98508 36.974 4.50714 38.5003C3.98401 40.1709 3.85475 41.9448 3.65527 43.6736" stroke="#101010" stroke-width="2" stroke-linecap="round"/>
<path d="M17.232 27.7809C17.0325 29.5766 16.5342 31.3707 15.5993 32.9454C14.6543 34.537 13.2641 35.8276 12.6799 37.6129C12.1365 39.2733 12.1208 41.0243 12.1208 42.7507C12.1208 44.5032 12.3892 46.2164 12.4447 47.964C12.4965 49.5942 12.5201 51.2168 12.5201 52.8489C12.5201 56.0197 11.368 59.1347 11.6416 62.2816" stroke="#101010" stroke-width="2" stroke-linecap="round"/>
<path d="M3.25585 65.7956C2.96638 63.1903 3.29175 60.5309 3.65517 57.9247C4.02558 55.2682 4.13434 52.6952 4.13434 50.0183C4.13434 49.062 4.33435 48.1769 3.7439 47.4005C2.44784 45.6964 1.46721 44.1765 1.16168 42.0142C0.786358 39.3581 1.0973 36.5576 1.75621 33.9659C2.28402 31.8898 3.56394 30.0539 4.31181 28.0649C5.12388 25.9052 6.03484 23.8033 6.75206 21.6049C7.19118 20.2589 7.4034 18.8646 7.96775 17.5585C8.45172 16.4385 8.93707 15.3207 9.44965 14.2132C12.7149 7.15785 19.975 1.22715 28.0665 1.88769C28.9953 1.96351 30.0521 2.06516 30.9682 2.06516C31.5103 2.06516 32.2127 1.51434 32.7252 1.32865C34.7087 0.609983 37.5719 1.14506 39.336 2.20714C42.2566 3.96546 44.6573 5.9969 46.1687 9.15519C47.8252 12.6164 48.6411 16.4353 50.0376 19.9988C50.5788 21.3796 51.7238 22.4632 52.3714 23.8056C53.1491 25.4176 54.0343 26.9506 54.6076 28.6594C55.1699 30.3359 55.6458 32.1208 55.6458 33.8949C55.6458 34.9431 55.6132 35.9857 55.7434 37.0273C55.8606 37.9652 56.3728 38.8069 56.5065 39.7426C56.6308 40.6128 56.5853 41.6061 56.7993 42.449C57.4506 45.0133 57.0034 48.1701 57.0034 50.7903C57.0034 52.14 56.9121 53.4482 57.5447 54.6503C57.6771 54.9019 57.7541 55.2057 57.9618 55.4134C58.21 55.6616 58.7269 55.3799 59 55.653" stroke="#101010" stroke-width="2" stroke-linecap="round"/>
<path d="M39.1939 28.9789C39.1939 29.8613 39.8527 30.9879 40.272 31.7297C40.9924 33.0043 40.1477 34.0217 39.114 34.729" stroke="#101010" stroke-width="2" stroke-linecap="round"/>
<path d="M27.6138 41.2777C27.7464 41.2777 27.8336 41.2065 27.9332 41.118C28.4849 40.6277 29.7627 40.5282 30.4134 40.3593C33.5392 39.5482 36.5759 38.8492 39.8283 39.0815C40.7211 39.1453 41.6437 39.0963 42.5303 39.2191C42.8991 39.2701 43.2032 39.4409 43.5819 39.4409C44.202 39.4409 44.0369 40.0675 43.746 40.4392C41.3912 43.4481 38.0009 44.5238 34.2867 43.6115C32.8632 43.2619 31.4487 42.8542 30.0451 42.4136C29.1247 42.1246 28.4388 41.6104 27.6138 41.1979" stroke="#101010" stroke-width="2" stroke-linecap="round"/>
<path d="M44.1455 23.8322C44.1455 23.8648 44.1169 23.8764 44.1014 23.9057C44.0163 24.067 43.8785 24.1834 43.8369 24.3678C43.7737 24.6482 43.7672 25.1148 43.9627 25.349C44.1374 25.5585 44.4549 25.6308 44.7154 25.6005C44.9613 25.5718 45.3347 25.4657 45.4876 25.2543C45.6523 25.0268 45.6886 24.6892 45.615 24.4249C45.5461 24.1773 45.3197 23.9985 45.086 23.9122C44.7704 23.7957 44.4855 23.8674 44.1749 23.9645" stroke="#101010" stroke-width="2" stroke-linecap="round"/>
<path d="M44.4394 24.3906C44.4394 24.4339 44.4288 24.4718 44.4247 24.5147C44.3809 24.965 44.8202 25.0597 45.0565 24.7139C45.3354 24.3058 44.5866 24.2274 44.4949 24.5817C44.4431 24.7817 44.6624 24.8961 44.8296 24.8674C44.9919 24.8395 45.0343 24.7431 45.0859 24.611" stroke="#101010" stroke-width="2" stroke-linecap="round"/>
<path d="M27.6726 24.2731C27.5547 24.404 27.4639 24.5359 27.3787 24.6951C27.2881 24.8644 27.1504 25.088 27.2007 25.2911C27.2577 25.5211 27.5274 25.6177 27.7362 25.6462C28.2402 25.7151 28.9479 25.4904 29.0873 24.9392C29.2093 24.4571 28.7251 24.1981 28.3142 24.3384C27.9808 24.4522 27.4435 24.8719 27.635 25.2976C27.829 25.7286 28.6335 25.4314 28.822 25.1401C29.1276 24.6676 28.486 24.413 28.1175 24.5286C27.9156 24.5919 27.7463 24.7275 27.6244 24.8984C27.4896 25.0875 27.5078 25.1685 27.5697 25.3605" stroke="#101010" stroke-width="2" stroke-linecap="round"/>
<path d="M28.3341 25.0078C28.3289 25.1058 28.3087 25.202 28.3047 25.3017" stroke="#101010" stroke-width="2" stroke-linecap="round"/>
<path d="M39.781 25.4487C39.8455 25.4487 39.9111 25.4033 39.9647 25.3719C40.4102 25.1109 40.8432 24.8294 41.288 24.5678C41.9558 24.175 42.744 23.7943 43.5175 23.6951C44.1149 23.6185 44.7568 23.6387 45.334 23.8322C45.811 23.9922 46.1259 24.4021 46.4671 24.7433" stroke="#101010" stroke-width="2" stroke-linecap="round"/>
<path d="M23.47 26.0512C23.5148 26.043 23.5541 26.006 23.5875 25.9777C24.0524 25.5839 24.5574 25.2135 25.0897 24.9156C25.8189 24.5074 26.5722 24.0622 27.4147 23.9515C28.0549 23.8674 28.7293 23.9418 29.3103 24.2323C29.597 24.3756 29.8152 24.5862 30.0671 24.7785C30.1938 24.8752 30.3649 24.9713 30.4647 25.096" stroke="#101010" stroke-width="2" stroke-linecap="round"/>
<path d="M18.7568 45.0139C18.7568 45.3426 18.867 45.6321 18.9386 45.9574C19.3025 47.6104 19.7687 49.2193 19.9838 50.9022C20.1617 52.2934 20.4284 53.6616 20.6136 55.0506C20.9694 57.7194 21.3182 60.3747 21.873 63.0099" stroke="#101010" stroke-width="2" stroke-linecap="round"/>
<path d="M43.8809 49.6157C43.8809 51.5044 44.1065 53.4125 44.1147 55.3113C44.1212 56.844 43.8993 58.3087 43.6818 59.8212C43.328 62.282 43.2188 64.6923 43.2188 67.1831" stroke="#101010" stroke-width="2" stroke-linecap="round"/>
<path d="M34.8485 6.32501C34.8485 6.59092 35.2692 6.6852 35.4551 6.75673C36.6802 7.22789 37.9423 7.53927 39.1511 8.07009C41.5089 9.10546 44.1123 10.1518 45.2571 12.6496C45.9843 14.2363 46.1686 15.9048 46.6269 17.5715C46.8477 18.3744 47.0468 19.1946 47.3246 19.9796C47.5693 20.6713 47.7136 21.3085 47.6652 22.0471C47.6144 22.8222 47.4393 23.5518 47.4393 24.3368C47.4393 25.1718 47.5294 25.9317 47.7016 26.7486C48.071 28.5003 49.2117 29.9469 49.3866 31.7543C49.5862 33.8171 49.0359 35.9159 48.6853 37.9295C48.5349 38.793 48.4539 39.6647 48.29 40.5252C48.0469 41.8015 47.6714 42.9358 47.0422 44.0719C46.5398 44.9791 45.9805 45.8515 45.3664 46.6877C44.8634 47.3724 44.4742 48.1352 43.9473 48.8025C42.8529 50.1888 42.0536 51.7118 40.408 52.5495C39.4606 53.0318 38.5328 53.3437 37.4643 53.3437C36.0891 53.3437 34.8875 52.9219 33.6135 52.4566C32.4203 52.0208 31.2621 51.4815 30.0614 51.0667C28.5854 50.5569 27.1074 50.0598 25.6204 49.584C22.8884 48.7098 20.2343 46.9921 18.6328 44.5728C18.192 43.9069 17.8139 43.2499 17.4378 42.5454C17.3216 42.3276 17.0972 41.6398 16.8404 41.835C16.6751 41.9605 16.5176 42.1881 16.405 42.3614C16.2049 42.6693 15.8718 42.5666 15.5525 42.6055C14.2197 42.768 13.0517 41.541 12.29 40.589" stroke="#101010" stroke-width="2" stroke-linecap="round"/>
<path d="M18.6647 22.6744C18.707 22.6268 18.711 22.5793 18.775 22.5469C19.442 22.2088 20.115 21.9555 20.8368 21.766C22.1017 21.434 23.3492 21.1382 24.6516 20.9974C26.9426 20.7498 29.3108 20.9112 31.5261 21.5711C32.6029 21.8919 33.66 22.2372 34.7243 22.6033C35.5729 22.8951 36.5316 23.2721 37.4395 23.0495C38.9743 22.6731 40.3856 21.9184 41.8672 21.3823C42.5476 21.1362 43.3692 20.981 44.086 20.8773C44.9712 20.7492 45.8685 20.7933 46.7534 20.892C48.3545 21.0706 49.9611 21.3709 51.4753 21.9242C51.7531 22.0257 51.6509 22.2492 51.6175 22.5285C51.465 23.8042 51.4434 25.0896 51.2498 26.3617C51.076 27.503 50.7451 28.6022 50.1845 29.6114C49.7815 30.3368 49.1101 30.8775 48.4475 31.3508C47.8635 31.768 47.0955 32.2888 46.3538 32.3352C45.6618 32.3784 44.983 32.3021 44.3066 32.1623C42.487 31.7862 41.1113 30.6261 39.9304 29.2497C39.666 28.9415 39.3509 28.664 39.1459 28.3108C38.9494 27.9722 38.7529 27.6269 38.5685 27.2823C38.1811 26.558 37.8871 25.7116 37.2581 25.1481C36.8938 24.8217 36.4931 24.6027 35.9881 24.6602C35.6234 24.7018 35.2982 25.1066 35.1239 25.3969C34.6789 26.1387 34.3107 27.0055 34.0219 27.8204C33.4742 29.3661 32.6404 31.0569 31.124 31.8657C30.6013 32.1445 29.992 32.2872 29.4042 32.3376C28.4019 32.4235 27.3879 32.4543 26.3825 32.4492C25.2267 32.4433 23.9639 32.2268 23.0041 31.5469C21.8508 30.73 21.1876 29.292 20.7216 27.9969C20.3674 27.0126 20.0664 25.879 19.4553 25.0133C19.0108 24.3835 18.2144 23.7399 18.5985 22.895" stroke="#101010" stroke-width="2" stroke-linecap="round"/>
</svg>
