<svg width="185" height="184" viewBox="0 0 185 184" fill="none" xmlns="http://www.w3.org/2000/svg">
<path d="M28.2982 67.4645C22.1625 75.4676 16.2663 92.8596 17.5009 102.664C21.8766 137.412 55.3378 153.836 87.4265 148.822C112.885 144.844 137.233 129.196 141.918 102.301C143.657 92.3171 143.102 79.3708 137.498 70.5632" stroke="#F5EFEB" stroke-width="3" stroke-linecap="round"/>
<path d="M91.846 40.2017C88.8804 41.7717 86.5612 44.7908 84.0564 46.9769C76.8394 53.2754 69.1375 58.0357 60.5425 62.2301C50.3563 67.2009 39.6934 68.2444 28.5869 68.2444" stroke="#F5EFEB" stroke-width="3" stroke-linecap="round"/>
<path d="M86.1194 45.4837C86.1194 54.8848 100.347 64.5779 107.752 68.498C116.881 73.3311 128.874 79.9832 139.454 79.9832" stroke="#F5EFEB" stroke-width="3" stroke-linecap="round"/>
<path d="M78.9517 4.86706C73.2175 5.82274 70.2847 6.25577 68.8758 6.57944C60.6211 8.47578 51.8799 10.4602 44.8909 15.4922C31.7165 24.9778 20.8794 39.7549 13.2976 53.752C4.05115 70.8224 4.25472 90.5065 2.79065 109.33C1.81299 121.9 2.0168 131.018 2.01893 148.698C2.79065 154.91 2.74485 156.464 5.50797 157.952C11.0434 160.933 18.3619 162.215 24.3842 164.111C37.0324 168.093 44.0691 168.767 51.2368 147.264" stroke="#F5EFEB" stroke-width="3" stroke-linecap="round"/>
<path d="M78.9517 4.86706C80.6444 4.86706 85.1346 4.22718 86.7733 3.68097C93.4045 1.47056 102.825 1.64234 109.671 3.02881C124.056 5.94211 135.112 10.6447 146.916 19.6225C158.302 28.2822 170.588 40.8824 175.684 54.5491C183.54 75.6171 184.666 92.828 181.481 115.127C179.513 128.899 177.038 142.923 173.22 156.285C171.888 160.949 165.17 164.464 161.119 166.068C149.236 170.771 135.189 169.328 122.714 169.328C116.651 169.328 113.783 169.211 108.802 166.72" stroke="#F5EFEB" stroke-width="3" stroke-linecap="round"/>
<path d="M106.239 146.677C106.239 147.582 106.178 148.382 106.079 149.275C105.813 151.665 106.298 153.696 106.408 156.058C106.514 158.332 107.393 160.486 107.68 162.729C107.732 163.134 107.703 164.505 108 164.677" stroke="#F5EFEB" stroke-width="3" stroke-linecap="round"/>
<path d="M42 166.677C42.4302 166.725 42.3309 167.155 42.5625 167.424C44.0432 169.145 44.8348 171.429 46.3125 173.173C48.3453 175.573 50.9947 177.323 53.9062 178.455C61.0633 181.238 69.0655 181.914 76.6875 181.61C84.1028 181.315 90.607 178.722 97.1875 175.519C100.237 174.034 103.851 172.678 106.292 170.247C106.929 169.612 108 169.333 108 168.358" stroke="#F5EFEB" stroke-width="3" stroke-linecap="round"/>
</svg>
