<svg width="100" height="57" viewBox="0 0 100 57" fill="none" xmlns="http://www.w3.org/2000/svg">
<path d="M64.1213 15.7346C62.7722 17.4942 61.6037 20.9774 61.8752 23.133C62.8373 30.773 70.1944 34.3842 77.2498 33.2818C82.8473 32.4072 88.2008 28.9668 89.2308 23.0533C89.6132 20.8581 89.2308 20.088 88.7348 18.0787" stroke="#F5EFEB" stroke-width="2" stroke-linecap="round"/>
<path d="M78.2216 9.39944C77.5695 9.74465 77.0596 10.4085 76.5089 10.8891C74.9221 12.274 73.2286 13.3206 71.3389 14.2428C69.0992 15.3358 66.7547 15.5652 64.3127 15.5652" stroke="#F5EFEB" stroke-width="2" stroke-linecap="round"/>
<path d="M76.9622 10.5608C76.9622 12.6278 80.0904 14.7591 81.7185 15.621C83.7257 16.6836 86.3627 18.1462 88.6888 18.1462" stroke="#F5EFEB" stroke-width="2" stroke-linecap="round"/>
<path d="M75.3863 1.63037C74.1255 1.8405 73.4807 1.93571 73.1709 2.00687C71.356 2.42382 69.434 2.86014 67.8973 3.96654C65.0007 6.05214 62.6179 9.3012 60.9509 12.3788C58.9179 16.132 58.9626 20.46 58.6407 24.5988C58.4258 27.3626 57.7859 30.9243 58.6412 33.6506C58.8358 34.2707 58.9935 36.8396 59.601 37.1668C61.6103 37.8365 62.6303 37.4197 63.9544 37.8365C66.7353 38.712 67.7701 35.4952 69.6473 32.8134" stroke="#F5EFEB" stroke-width="2" stroke-linecap="round"/>
<path d="M75.3862 1.63038C75.7584 1.63038 76.7457 1.48969 77.106 1.3696C78.564 0.883592 80.6354 0.92136 82.1406 1.22621C85.3033 1.86676 87.7343 2.90071 90.3297 4.87469C92.8331 6.7787 95.5343 9.5491 96.6548 12.554C98.3821 17.1863 98.6298 20.9704 97.9294 25.8734C97.4968 28.9015 96.9525 31.9849 96.1131 34.9229C95.8202 35.9482 94.3433 36.7211 93.4524 37.0737C90.8398 38.1079 87.7511 37.7907 85.0084 37.7907C83.6751 37.7907 83.0447 37.7648 81.9494 37.2171" stroke="#F5EFEB" stroke-width="2" stroke-linecap="round"/>
<path d="M64.8626 37.9307C62.1523 37.9307 59.4084 36.9789 56.7048 36.6747C52.8444 36.2404 49.0451 35.2605 45.3013 34.2545C40.903 33.0726 36.417 32.2405 32.0239 31.0727C30.3705 30.6332 28.5445 30.0991 26.8406 30.036C26.2528 30.0143 25.4516 29.8883 24.8908 29.7131C23.79 29.3691 22.6098 29.5343 21.4778 29.3582C20.4493 29.1982 19.3239 29.3183 18.284 29.3183C17.4642 29.3183 16.9091 29.1427 15.8993 29.3183C14.8896 29.494 15.8972 30.4158 16.2904 30.666C17.9202 31.7032 20.4089 31.9738 22.3111 31.9738C23.468 31.9738 23.6052 32.083 24.0974 33.1221C25.0402 35.1125 26.3744 37.258 28.8342 37.2848C29.8635 37.296 30.8319 37.0345 31.7648 36.607C31.9969 36.5006 32.4962 36.1365 32.7097 36.1365C34.9315 36.1365 36.7935 37.7477 38.7384 38.7202C43.8886 41.2953 48.7404 44.5566 54.2088 46.4753C55.4396 46.9072 56.7625 47.5589 58.0445 47.7951C58.6791 47.912 61.2374 49.0297 61.7776 49.3898" stroke="#F5EFEB" stroke-width="2" stroke-linecap="round"/>
<path d="M62.6149 9.58167C61.6102 9.58167 60.1325 9.58167 59.101 9.58167C54.4944 9.58167 49.9098 10.1497 45.3092 10.3552C40.7304 10.5597 36.2643 10.2561 31.7009 10.1558C28.4805 10.085 25.2747 9.86874 22.0518 9.86874C19.1281 9.86874 16.2112 9.98352 13.292 10.0123C10.2667 10.0421 7.24341 10.0841 4.21707 10.0841C2.45903 10.0841 1.32488 9.83366 1.13097 11.9182C0.79918 15.4849 1.15705 19.0211 1.54564 22.572C2.19383 28.4951 2.20557 34.4366 2.65409 40.3709C2.94047 44.1599 3.00444 48.0842 3.82234 51.8102C3.98068 52.5315 4.1453 53.2315 4.1453 53.9712C4.1453 54.871 5.80608 54.985 6.37814 55.1156C10.3881 56.0306 14.7348 55.401 18.8023 55.3707C28.8249 55.2962 38.8541 54.8684 48.8738 54.8684C52.6275 54.8684 56.3737 54.9401 60.1257 54.9401" stroke="#F5EFEB" stroke-width="2" stroke-linecap="round"/>
<path d="M66.2082 37.9312C65.6216 38.0045 66.6934 39.3641 66.9553 39.5367C68.1148 40.3006 69.4677 40.7704 70.8368 40.9927C72.6446 41.2862 74.858 40.7157 76.5039 39.9926C77.7342 39.4522 78.8671 38.7852 80.0367 38.1419C80.5548 37.857 81.1441 37.578 81.6058 37.2702C81.9424 37.0458 81.7265 35.6695 81.7265 35.3084C81.7265 34.263 81.7265 33.2176 81.7265 32.1721" stroke="#F5EFEB" stroke-width="2" stroke-linecap="round"/>
<path d="M35.9214 32.2569C35.9214 32.3581 35.8846 32.3954 35.8025 32.4486C35.4177 32.6976 35.3135 33.6474 35.2011 34.0081C34.994 34.6726 34.8455 35.4284 34.4346 36.0038" stroke="#F5EFEB" stroke-width="2" stroke-linecap="round"/>
<path d="M10.1245 16.457C10.1245 16.4845 10.1245 16.5119 10.2205 17.8492C10.3165 19.1866 10.5084 21.833 10.7062 24.5596" stroke="#F5EFEB" stroke-linecap="round"/>
<path d="M13.6565 16.6233C13.6565 16.637 13.6565 16.6507 13.6702 17.6793C13.6839 18.7079 13.7113 20.751 13.7392 21.9132C13.767 23.0754 13.7944 23.2948 13.8086 23.4627C13.8227 23.6305 13.8227 23.7402 13.8227 23.8533" stroke="#F5EFEB" stroke-linecap="round"/>
<path d="M10 20.5707C10.0823 20.5844 10.1645 20.5981 10.8445 20.5777C11.5245 20.5574 12.7998 20.5025 14.1136 20.446" stroke="#F5EFEB" stroke-linecap="round"/>
<path d="M16.8145 19.1164C16.8145 19.1438 16.883 19.3773 17.0486 20.1348C17.1456 20.6729 17.269 21.523 17.3326 22.0158C17.3962 22.5086 17.3962 22.6183 17.3962 22.7314" stroke="#F5EFEB" stroke-linecap="round"/>
<path d="M16.2742 16V16.0416" stroke="#F5EFEB" stroke-linecap="round"/>
</svg>
